# xmcd
#
# Track frame offsets:
#	183
#	14033
#	26420
#	40473
#	56893
#	69700
#	82053
#	97678
#	110700
#	124450
#	137918
#	150975
#	164955
#	180583
#	193940
#	208385
#	222163
#	235258
#	248770
#	263575
#	277750
#	290968
#	304828
#	317175
#
# Disc length: 4406
#
# Revision: 1
# Processed by: cddbd v1.5.1PL0 Copyright (c) Steve Scherf et al.
# Submitted via: CDex 1.50beta10
# Normalized: r0:DSETVAR1,TDELIM( - )
#
DISCID=7a113418
DTITLE=Various Artist - Jazz - Kansas City Style
DYEAR=1996
DGENRE=Jazz
TTITLE0=Bennie Moten - New Vine Street Blues
TTITLE1=George E. Lee - Paseo Street
TTITLE2=George E. Lee - Ruff Scufflin'
TTITLE3=Julia Lee and George E. Lee - He's Tall and Dark and Handsome
TTITLE4=Jimmy Rushing and Walter Page - Blue Devil Blues
TTITLE5=Andy Kirk - Corky Stomp
TTITLE6=Bennie Moten - Moten Swing
TTITLE7=Bennie Moten - Prince of Wales
TTITLE8=Andy Kirk - Walkin' and Swingin'
TTITLE9=Andy Kirk - Lotta Sax Appeal
TTITLE10=Jones-Smith - Shoe Shine Boy
TTITLE11=Count Basie - Doggin' Around
TTITLE12=Harlan Leonard - A La Bridges
TTITLE13=Pete Johnson - Kaycee On My Mind
TTITLE14=Pete Johnson - 627 stomp
TTITLE15=Joe Turner - Piney Brown Blues
TTITLE16=Oran 'Hot Lips' Page - Lafayette
TTITLE17=Oran 'Hot Lips' Page - South
TTITLE18=Eddie Durham - I Want A Little Girl
TTITLE19=Harlan Leonard - Dameron Stomp
TTITLE20=Mary Lou Williams - Baby Dear
TTITLE21=Jay McShann - Dexter Blues
TTITLE22=Jay McShann - Hold 'Em Hootie
TTITLE23=Jay McShann - Bottle It
EXTD=YEAR: 1996
EXTT0=
EXTT1=
EXTT2=
EXTT3=
EXTT4=
EXTT5=
EXTT6=
EXTT7=
EXTT8=
EXTT9=
EXTT10=
EXTT11=
EXTT12=
EXTT13=
EXTT14=
EXTT15=
EXTT16=
EXTT17=
EXTT18=
EXTT19=
EXTT20=
EXTT21=
EXTT22=
EXTT23=
PLAYORDER=
